<?xml version="1.0" encoding="UTF-8" standalone="no"?>
<svg
   xmlns:dc="http://purl.org/dc/elements/1.1/"
   xmlns:cc="http://creativecommons.org/ns#"
   xmlns:rdf="http://www.w3.org/1999/02/22-rdf-syntax-ns#"
   xmlns:svg="http://www.w3.org/2000/svg"
   xmlns="http://www.w3.org/2000/svg"
   xmlns:sodipodi="http://sodipodi.sourceforge.net/DTD/sodipodi-0.dtd"
   xmlns:inkscape="http://www.inkscape.org/namespaces/inkscape"
   version="1.0"
   width="367.44986"
   height="380.24228"
   id="svg3004"
   inkscape:version="0.48.4 r9939"
   sodipodi:docname="logo-square-monochrome-dark.svg">
  <metadata
     id="metadata3044">
    <rdf:RDF>
      <cc:Work
         rdf:about="">
        <dc:format>image/svg+xml</dc:format>
        <dc:type
           rdf:resource="http://purl.org/dc/dcmitype/StillImage" />
        <dc:title></dc:title>
      </cc:Work>
    </rdf:RDF>
  </metadata>
  <defs
     id="defs3042" />
  <sodipodi:namedview
     pagecolor="#ffffff"
     bordercolor="#666666"
     borderopacity="1"
     objecttolerance="10"
     gridtolerance="10"
     guidetolerance="10"
     inkscape:pageopacity="0"
     inkscape:pageshadow="2"
     inkscape:window-width="1366"
     inkscape:window-height="734"
     id="namedview3040"
     showgrid="false"
     inkscape:zoom="0.70710678"
     inkscape:cx="103.35518"
     inkscape:cy="72.347354"
     inkscape:window-x="0"
     inkscape:window-y="16"
     inkscape:window-maximized="0"
     inkscape:current-layer="svg3004"
     fit-margin-top="7"
     fit-margin-left="7"
     fit-margin-right="7"
     fit-margin-bottom="7" />
  <g
     transform="translate(-266.27531,-76.758212)"
     id="g3006"
     style="fill:#ffffff;fill-opacity:1">
    <g
       id="g3008"
       style="fill:#ffffff;fill-opacity:1">
      <path
         d="m 569.38574,394.10938 c -10.77441,2.88525 -22.27148,3.81298 -32.73535,7.38134 17.72266,-15.1958 16.71094,-38.70849 28.53516,-56.60595 3.7666,-5.06739 6.87988,-10.37891 11.2705,-15.1875 -7.19238,14.42773 -4.07324,33.14648 -12.33593,47.14746 -3.18067,5.56152 -7.72949,10.95703 -12.75977,15.32519 1.64356,-0.0615 3.08203,-1.48437 4.52735,-2.43457 13.42089,-13.39258 30.9541,-17.13769 45.47168,-28.01855 5.81542,-4.63379 11.1416,-10.70606 13.69824,-17.27344 -2.74707,22.21973 -24.85254,43.0459 -45.67188,49.66602 l 0,0 z"
         id="path3010"
         inkscape:connector-curvature="0"
         style="fill:#ffffff;fill-opacity:1" />
      <path
         d="m 617.73535,304.14551 c -6.5664,9.34375 -14.50976,18.04199 -20.57617,27.53808 0.67676,-7.51855 1.56738,-16.76367 -1.36133,-23.88574 -5.07519,-15.33691 -9.53418,-30.90918 -10.97265,-47.74121 l 0.19824,-6.43652 c 3.81933,17.18945 20.70508,29.00586 19.63965,48.28711 0.38671,4.67285 -1.0586,8.6455 -1.9336,12.75488 l 0.29004,0.30371 0.76074,-0.85254 c 2.50391,-9.45801 3.76758,-19.40332 7.66114,-28.22754 5.5332,-12.69824 12.44238,-25.51367 9.62695,-40.8457 8.41602,18.07617 5.86621,42.22754 -3.33301,59.10547 l 0,0 z"
         id="path3012"
         inkscape:connector-curvature="0"
         style="fill:#ffffff;fill-opacity:1" />
      <path
         d="m 607.37109,206.75781 c 11.07227,15.00537 13.49903,38.91797 5.43457,56.12989 -3.00586,7.29394 -5.1289,15.0664 -6.30957,23.13964 -0.56347,-1.39257 -0.69238,-3.26464 -1.19531,-4.8164 -4.4043,-16.84766 -20.33789,-28.85449 -26.89062,-44.73877 -2.07813,-5.19434 -3.84961,-10.56153 -4.83203,-16.2002 7.00195,12.9502 24.25781,19.63916 28.96093,33.91065 1.92676,3.60937 1.81836,8.11914 3.01367,12 0.25098,0 0.50196,-0.18653 0.50196,-0.44141 -2.07031,-14.70117 -1.43848,-30.0874 0.55664,-44.60596 -0.11524,-7.86425 -0.88281,-15.49267 -5.25195,-21.58007 2.80175,1.63232 4.06347,4.76757 6.01171,7.20263 l 0,0 z"
         id="path3014"
         inkscape:connector-curvature="0"
         style="fill:#ffffff;fill-opacity:1" />
      <path
         d="m 599.56445,203.87744 c 2.90821,13.14893 -1.33984,25.95459 1.33203,39.22998 l -0.0996,0.11426 c -7.15333,-14.06641 -22.33985,-20.70508 -32.78907,-31.96338 -6.05566,-6.68066 -8.68847,-14.82275 -10.20312,-23.44385 5.9873,14.43457 22.14355,17.61524 31.41894,29.77881 3.10352,2.8042 4.11621,6.68897 6.11719,9.86914 l 0.32715,-0.31592 c -5.33399,-11.38671 -7.1211,-24.20117 -10.84277,-36.34521 -1.86329,-5.26221 -5.56153,-10.43262 -10.52344,-13.75049 12.17578,2.48828 22.72851,15.19971 25.26269,26.82666 l 0,0 z"
         id="path3016"
         inkscape:connector-curvature="0"
         style="fill:#ffffff;fill-opacity:1" />
      <path
         d="m 567.01172,173.72168 c 9.16992,8.20703 13.31738,18.8335 15.99512,29.84375 l 1.51464,3.49658 c -13.30957,-9.57226 -25.40039,-22.43994 -33.89941,-36.02978 l -10.37988,-10.50098 c 9.125,3.86914 18.96289,6.17871 26.76953,13.19043 l 0,0 z"
         id="path3018"
         inkscape:connector-curvature="0"
         style="fill:#ffffff;fill-opacity:1" />
      <path
         d="m 356.80566,162.27393 c -9.20019,8.06543 -15.58105,18.26562 -22.40625,27.77734 -6.11816,7.57519 -13.94433,12.57031 -20.87988,19.08447 3.74414,-7.76172 3.88086,-17.0332 9.19141,-24.16308 7.55664,-13.1836 21.56933,-17.82178 34.09472,-22.69873 l 0,0 z"
         id="path3020"
         inkscape:connector-curvature="0"
         style="fill:#ffffff;fill-opacity:1" />
      <path
         d="m 306.49219,190.35986 c 4.47461,-5.5625 10.14746,-9.42822 16.53125,-11.06054 -12.39551,8.51513 -11.58887,23.7749 -15.51856,36.46045 -1.25293,4.69091 -3.42871,9.01269 -4.51269,13.82128 l 0.31543,0.25098 c 2.0625,-5.43603 5.6875,-10.57226 10.21191,-15.00781 8.80371,-8.12695 21.82715,-13.1919 26.1416,-25.21387 -0.19726,16.70606 -14.13379,29.83985 -27.46875,39.22901 -5.49902,4.82421 -10.80175,10.32226 -13.83008,16.52392 -0.29687,-4.21484 0.62305,-8.44678 0.32325,-12.96191 -1.4502,-14.5835 -2.50391,-31.22901 7.80664,-42.04151 l 0,0 z"
         id="path3022"
         inkscape:connector-curvature="0"
         style="fill:#ffffff;fill-opacity:1" />
      <path
         d="m 281.41211,240.22754 c -0.37305,-14.77832 5.76074,-26.8418 14.4043,-37.85303 0.25097,-0.12549 0.42968,-0.37646 0.75293,-0.31592 -9.51465,14.4585 -1.64356,32.67041 -2.07715,49.11036 l -1.25489,16.83203 c 0.18653,0.12207 0.18653,0.62793 0.62793,0.43359 0.5625,-1.87598 0.68457,-3.88086 1.06055,-5.81055 2.24121,-13.57714 14.03223,-23.21093 24.33106,-32.59375 2.19921,-2.4541 4.14355,-4.9458 5.27343,-7.82568 -0.84082,6.76025 -2.95996,13.57861 -5.76464,19.83057 -8.01563,15.63183 -22.82325,28.458 -25.52833,46.35449 -1.3125,-17.15039 -12.98925,-29.97266 -11.82519,-48.16211 l 0,0 z"
         id="path3024"
         inkscape:connector-curvature="0"
         style="fill:#ffffff;fill-opacity:1" />
      <path
         d="m 274.21387,261.24316 c 1.06543,-4.62207 1.87988,-9.40527 3.8916,-13.64648 -3.81152,19.53711 9.3291,33.61426 13.63965,50.54883 1.80371,6.33398 2.24511,13.13672 4.82422,19.08008 0.24023,0.12988 0.44921,-0.1211 0.59765,-0.31153 -6.41797,-17.98926 2.84668,-34.70605 12.15625,-48.79101 2.26367,-3.81641 3.56836,-8.06641 4.69434,-12.45313 0.98926,8.1416 -1.06934,17.51758 -2.25195,25.97071 -2.26368,10.75585 -5.64258,20.95605 -8.58399,31.39257 -1.93555,6.52149 -1.42676,13.87891 -0.43262,20.71192 L 301.81641,333 c -6.8252,-12.58594 -20.33985,-22.40234 -24.35352,-36.15234 -3.30273,-10.96192 -5.49805,-23.66016 -3.24902,-35.6045 l 0,0 z"
         id="path3026"
         inkscape:connector-curvature="0"
         style="fill:#ffffff;fill-opacity:1" />
      <path
         d="m 273.59766,299.40137 c 1.50293,20.70801 23.77148,31.65039 34.09375,48.79394 2.44238,3.50782 4.56152,7.38867 7.82519,10.3252 -0.50976,-2.20606 -2.56836,-4.0625 -3.32422,-6.32227 -3.61133,-7.19043 -4.92773,-15.75879 -4.05957,-24.44922 1,-10.57714 5.43653,-20.39257 3.74317,-31.51757 9.07031,19.55664 6.31543,43.96679 11.38672,65.1582 1.32812,4.63476 4.01074,8.77344 5.76855,13.20312 -18.63574,-12.69238 -44.04687,-24.76855 -52.31445,-48.03027 -3.48438,-8.02051 -3.87305,-17.9502 -3.11914,-27.16113 l 0,0 z"
         id="path3028"
         inkscape:connector-curvature="0"
         style="fill:#ffffff;fill-opacity:1" />
      <path
         d="m 284.72949,346.95508 c 10.39063,23.50586 36.41406,25.45312 53.86231,39.7666 3.21093,2.8457 6.57519,5.26562 10.20019,6.9541 l 0.18653,-0.18945 c -4.00586,-3.62207 -8.63965,-7.74707 -11.44434,-12.44141 -10.21191,-14.19922 -6.62012,-34.08984 -14.27148,-49.36133 6.95214,8.31641 13.27441,16.96094 17.47168,26.39551 6.24316,15.40137 8.6289,32.79688 23.07519,44.43897 -15.63379,-5.15235 -33.94922,-3.71289 -47.74805,-13.33936 -15.0664,-9.25976 -28.51269,-24.96582 -31.33203,-42.22363 l 0,0 z"
         id="path3030"
         inkscape:connector-curvature="0"
         style="fill:#ffffff;fill-opacity:1" />
      <path
         d="m 311.43457,390.80664 c 16.66016,18.94775 43.88281,12.62549 66.0752,17.58447 3.13476,0.42774 6.0039,1.6836 9.32617,1.17383 -2.64551,-1.67383 -6.31641,-1.49219 -9.2041,-3.01367 -17.39551,-6.11133 -19.94727,-24.94385 -29.39063,-37.64307 12.06445,8.01172 22.20703,18.81739 33.33692,29.2876 8,7.00781 17.62988,10.24219 27.77636,12.30469 -2.43847,0.89062 -5.63476,0.64648 -8.25195,1.33203 -18.22852,4.48242 -38.48047,11.80859 -57.81152,5.25 -12.56739,-3.95703 -25.53321,-13.89453 -31.85645,-26.27588 l 0,0 z"
         id="path3032"
         inkscape:connector-curvature="0"
         style="fill:#ffffff;fill-opacity:1" />
      <path
         d="m 537.55664,434.97314 c -18.77344,7.00586 -38.36621,-0.32031 -53.0293,-11.43945 -5.93652,-3.77344 -11.16992,-9.20703 -18.84863,-8.72656 -2.78516,-0.0527 -5.4707,0.084 -7.83789,0.76758 14.24512,6.6289 27.47754,15.76758 39.57617,27.45508 -2.03906,2.32812 -4.67969,4.50585 -7.16699,6.51367 -11.65918,-12.5625 -24.57129,-24.6543 -39.02832,-31.7168 -2.83105,0.36719 -5.52441,2.07031 -8.07715,3.44141 -11.76953,7.4414 -23.40723,17.01367 -32.15723,28.73242 l -7.51855,-6.20899 c 12,-12.13867 25.27344,-21.58789 39.79395,-28.33789 -14.26856,-4.51953 -23.58204,7.4336 -34.41309,13.51368 -12.62109,8.8125 -30.77246,12.95117 -46.02539,6.87109 -8.20313,-3.11133 -16.15039,-7.69336 -22.08984,-15.14063 12.0039,8.26954 29.88183,9.13672 43.5332,3.76563 18.31836,-7.94531 37.35351,-18.01758 59.43652,-13.20117 3.44629,0.0605 6.79492,3.49218 10.05078,0.57031 16.41309,-4.26172 34.99512,-1.33203 49.12598,6.16992 l 14.56445,5.83789 c 13.53711,5.00586 31.03907,3.6211 42.64258,-4.62695 -5.96582,7.42578 -14.11523,12.74609 -22.53125,15.75976 l 0,0 z"
         id="path3034"
         inkscape:connector-curvature="0"
         style="fill:#ffffff;fill-opacity:1" />
      <path
         d="m 557.6748,415.57471 c -21.07812,7.95898 -42.2832,-1.81055 -62.47949,-5.07422 l -3.88867,-0.49414 0,-0.12305 c 9.65723,-2.19141 19.03125,-5.06641 26.71777,-12.00586 11.32129,-10.88232 21.39551,-22.08349 33.96778,-30.65869 -9.32324,11.9541 -10.31153,28.96924 -25.71289,36.65479 -3.81153,2.49414 -8.62207,2.93554 -12.55567,4.82421 5.60938,0.1211 10.74512,-1.88867 16.29981,-2.45117 20.65234,-3.24219 44.27832,0.084 58.7666,-17.50928 -5.37891,12.25928 -18.84961,22.52491 -31.11524,26.83741 l 0,0 z"
         id="path3036"
         inkscape:connector-curvature="0"
         style="fill:#ffffff;fill-opacity:1" />
      <path
         d="m 595.97266,356.26855 c -8.32422,5.44825 -16.76172,10.50098 -24.76075,16.69532 l 0,-0.76074 c 12.25196,-20.36231 6.2627,-48.33497 13.81153,-70.74415 l 2.81543,-7.50683 c -1.5752,13.95996 4.48828,25.78515 4.0625,39.79297 -0.42578,8.46191 -3.1875,15.96484 -7.63086,22.72168 l 0.75293,0 c 6.00293,-7.88379 10.69043,-16.26856 17.70605,-23.77832 10.88965,-10.50098 21.96094,-21.26856 23.39063,-35.84082 3.69824,24.32714 -9.95215,45.64843 -30.14746,59.42089 l 0,0 z"
         id="path3038"
         inkscape:connector-curvature="0"
         style="fill:#ffffff;fill-opacity:1" />
    </g>
  </g>
  <g
     id="g4014"
     transform="matrix(1.1915337,0,0,1.1915337,-49.768854,-18.067257)"
     style="fill:#ffffff">
    <g
       id="g4019"
       transform="matrix(1.0904165,0,0,1.0904165,-20.263658,3.5320717)"
       style="fill:#ffffff">
      <path
         style="fill:#ffffff;fill-opacity:1;stroke:none"
         d="M 183.90625 7 C 178.24921 28.699151 170.35647 43.744695 160.375 52.625 L 136.21875 29.90625 L 127.78125 61.90625 C 118.02501 60.480212 107.28255 56.124558 95.625 49.0625 C 102.38696 75.734665 99.271687 129.53085 122.65625 129.09375 C 158.74403 120.98108 198.17415 118.42423 245.53125 129.09375 C 265.94009 129.09375 265.30098 75.235107 271.8125 48.3125 C 259.78033 56.363503 249.14042 60.58103 239.78125 61.84375 L 231.25 29.53125 L 208.03125 52.78125 C 195.05589 41.936395 187.37216 23.524126 183.90625 7 z M 185 70.8125 L 189.03125 79 L 198.09375 80.3125 L 191.53125 86.6875 L 193.0625 95.6875 L 185 91.4375 L 176.90625 95.6875 L 178.46875 86.6875 L 171.90625 80.28125 L 180.96875 79 L 185 70.8125 z M 132.09375 78.84375 L 136.125 87.03125 L 145.15625 88.34375 L 138.625 94.71875 L 140.15625 103.71875 L 132.0625 99.46875 L 124 103.71875 L 125.53125 94.71875 L 119 88.34375 L 128.03125 87.03125 L 132.09375 78.84375 z M 236.21875 79.375 L 240.25 87.5625 L 249.28125 88.90625 L 242.75 95.25 L 244.28125 104.28125 L 236.1875 100 L 228.125 104.25 L 229.65625 95.25 L 223.125 88.875 L 232.15625 87.5625 L 236.21875 79.375 z "
         transform="matrix(0.76966415,0,0,0.76966415,56.888713,10.666525)"
         id="path3086" />
    </g>
  </g>
  <g
     transform="matrix(2.2013698,0,0,2.2013698,-213.76212,-22.283285)"
     style="font-size:40px;font-style:normal;font-variant:normal;font-weight:normal;font-stretch:normal;line-height:125%;letter-spacing:0px;word-spacing:0px;fill:#ffffff;fill-opacity:1;stroke:none;font-family:SquareFont Outline;-inkscape-font-specification:SquareFont Outline"
     id="flowRoot4042">
    <path
       d="m 151.41969,77.123328 -6.64,0 0,28.000002 6.92,0 c 4.39999,0 6.68,-2.32001 6.68,-6.640002 l 0,-2.28 c 0,-2.959997 -0.92,-5.040001 -3.28,-5.96 l 0,-0.08 c 1.96,-0.919999 2.84,-2.720003 2.84,-5.6 l 0,-1 c 0,-4.319996 -1.96001,-6.44 -6.52,-6.44 m -0.28,15.4 c 2,0 2.84,0.800003 2.84,3.4 l 0,2.44 c 0,2.080002 -0.8,2.760002 -2.28,2.760002 l -2.52,0 0,-8.600002 1.96,0 m 0.16,-11.4 c 1.56,0 2.24,0.880002 2.24,2.88 l 0,1.56 c 0,2.239998 -1,2.96 -2.64,2.96 l -1.72,0 0,-7.4 2.12,0"
       style="font-size:40px;line-height:83.99999737999999638%;fill:#ffffff;font-family:Bebas Neue;-inkscape-font-specification:Bebas Neue"
       id="path3105" />
    <path
       d="m 165.06969,83.563328 c 0,-1.999998 0.88,-2.76 2.28,-2.76 1.4,0 2.28,0.760002 2.28,2.76 l 0,15.12 c 0,2.000002 -0.88,2.760002 -2.28,2.760002 -1.4,0 -2.28,-0.76 -2.28,-2.760002 l 0,-15.12 m -4.4,14.84 c 0,4.479992 2.36,7.040002 6.68,7.040002 4.31999,0 6.68,-2.56001 6.68,-7.040002 l 0,-14.56 c 0,-4.479996 -2.36001,-7.04 -6.68,-7.04 -4.32,0 -6.68,2.560004 -6.68,7.04 l 0,14.56"
       style="font-size:40px;line-height:83.99999737999999638%;fill:#ffffff;font-family:Bebas Neue;-inkscape-font-specification:Bebas Neue"
       id="path3107" />
    <path
       d="m 180.92906,83.563328 c 0,-1.999998 0.88,-2.76 2.28,-2.76 1.4,0 2.28,0.760002 2.28,2.76 l 0,15.12 c 0,2.000002 -0.88,2.760002 -2.28,2.760002 -1.4,0 -2.28,-0.76 -2.28,-2.760002 l 0,-15.12 m -4.4,14.84 c 0,4.479992 2.36001,7.040002 6.68,7.040002 4.32,0 6.68,-2.56001 6.68,-7.040002 l 0,-14.56 c 0,-4.479996 -2.36,-7.04 -6.68,-7.04 -4.31999,0 -6.68,2.560004 -6.68,7.04 l 0,14.56"
       style="font-size:40px;line-height:83.99999737999999638%;fill:#ffffff;font-family:Bebas Neue;-inkscape-font-specification:Bebas Neue"
       id="path3109" />
    <path
       d="m 192.18844,83.843328 c 0,3.199997 1.16,5.520003 4.84,8.76 2.87999,2.519997 3.76,4.040002 3.76,6.08 0,2.000002 -0.88,2.720002 -2.28,2.720002 -1.4,0 -2.28,-0.72 -2.28,-2.720002 l 0,-2 -4.16,0 0,1.72 c 0,4.479992 2.24,7.040002 6.56,7.040002 4.31999,0 6.56,-2.56001 6.56,-7.040002 0,-3.199997 -1.16001,-5.520003 -4.84,-8.76 -2.88,-2.519998 -3.76,-4.040002 -3.76,-6.08 0,-1.999998 0.8,-2.76 2.2,-2.76 1.4,0 2.2,0.760002 2.2,2.76 l 0,1.16 4.16,0 0,-0.88 c 0,-4.479996 -2.20001,-7.04 -6.48,-7.04 -4.28,0 -6.48,2.560004 -6.48,7.04"
       style="font-size:40px;line-height:83.99999737999999638%;fill:#ffffff;font-family:Bebas Neue;-inkscape-font-specification:Bebas Neue"
       id="path3111" />
    <path
       d="m 206.39031,81.123328 4.6,0 0,24.000002 4.4,0 0,-24.000002 4.6,0 0,-4 -13.6,0 0,4"
       style="font-size:40px;line-height:83.99999737999999638%;fill:#ffffff;font-family:Bebas Neue;-inkscape-font-specification:Bebas Neue"
       id="path3113" />
    <path
       d="m 155.65455,141.2461 4.85938,0 -6.57951,-16.68528 6.57951,-13.41703 -4.73037,0 -6.10647,13.03 -0.086,0 0,-13.03 -4.73036,0 0,30.10231 4.73036,0 0,-9.24571 1.46211,-2.75221 4.60135,11.99792"
       style="font-size:43.00329971000000029px;text-align:center;line-height:83.99999737999999638%;text-anchor:middle;fill:#ffffff;font-family:Bebas Neue;-inkscape-font-specification:Bebas Neue"
       id="path3115" />
    <path
       d="m 162.66678,141.2461 4.73036,0 0,-30.10231 -4.73036,0 0,30.10231"
       style="font-size:43.00329971000000029px;text-align:center;line-height:83.99999737999999638%;text-anchor:middle;fill:#ffffff;font-family:Bebas Neue;-inkscape-font-specification:Bebas Neue"
       id="path3117" />
    <path
       d="m 180.91966,141.2461 4.85938,0 0,-30.10231 -4.21433,0 0,18.01838 -0.086,0 -4.77337,-18.01838 -5.93445,0 0,30.10231 4.25732,0 0,-21.80267 0.086,0 5.80544,21.80267"
       style="font-size:43.00329971000000029px;text-align:center;line-height:83.99999737999999638%;text-anchor:middle;fill:#ffffff;font-family:Bebas Neue;-inkscape-font-specification:Bebas Neue"
       id="path3119" />
    <path
       d="m 196.30342,128.77514 2.15017,0 0,5.54743 c 0,2.15016 -0.94608,2.92422 -2.45119,2.92422 -1.50511,0 -2.45119,-0.77406 -2.45119,-2.92422 l 0,-16.25525 c 0,-2.15016 0.94608,-2.96723 2.45119,-2.96723 1.50511,0 2.45119,0.81707 2.45119,2.96723 l 0,3.22525 4.47234,0 0,-2.92423 c 0,-4.81636 -2.40819,-7.56858 -7.05254,-7.56858 -4.64435,0 -7.05254,2.75222 -7.05254,7.56858 l 0,15.65321 c 0,4.81636 2.40819,7.56858 7.05254,7.56858 4.64435,0 7.05254,-2.75222 7.05254,-7.56858 l 0,-9.54674 -6.62251,0 0,4.30033"
       style="font-size:43.00329971000000029px;text-align:center;line-height:83.99999737999999638%;text-anchor:middle;fill:#ffffff;font-family:Bebas Neue;-inkscape-font-specification:Bebas Neue"
       id="path3121" />
    <path
       d="m 205.404,118.36834 c 0,3.44027 1.2471,5.93446 5.2034,9.41773 3.09623,2.7092 4.04231,4.34333 4.04231,6.5365 0,2.15016 -0.94608,2.92422 -2.45119,2.92422 -1.50512,0 -2.45119,-0.77406 -2.45119,-2.92422 l 0,-2.15017 -4.47234,0 0,1.84915 c 0,4.81636 2.40819,7.56858 7.05254,7.56858 4.64435,0 7.05254,-2.75222 7.05254,-7.56858 0,-3.44026 -1.2471,-5.93446 -5.2034,-9.41773 -3.09624,-2.7092 -4.04231,-4.34333 -4.04231,-6.5365 0,-2.15016 0.86007,-2.96723 2.36518,-2.96723 1.50511,0 2.36518,0.81707 2.36518,2.96723 l 0,1.2471 4.47235,0 0,-0.94608 c 0,-4.81636 -2.36519,-7.56858 -6.96654,-7.56858 -4.60135,0 -6.96653,2.75222 -6.96653,7.56858"
       style="font-size:43.00329971000000029px;text-align:center;line-height:83.99999737999999638%;text-anchor:middle;fill:#ffffff;font-family:Bebas Neue;-inkscape-font-specification:Bebas Neue"
       id="path3123" />
  </g>
</svg>
