<?xml version="1.0" encoding="UTF-8" standalone="no"?>
<svg
   xmlns:dc="http://purl.org/dc/elements/1.1/"
   xmlns:cc="http://creativecommons.org/ns#"
   xmlns:rdf="http://www.w3.org/1999/02/22-rdf-syntax-ns#"
   xmlns:svg="http://www.w3.org/2000/svg"
   xmlns="http://www.w3.org/2000/svg"
   xmlns:sodipodi="http://sodipodi.sourceforge.net/DTD/sodipodi-0.dtd"
   xmlns:inkscape="http://www.inkscape.org/namespaces/inkscape"
   version="1.0"
   width="701.04987"
   height="136.09355"
   id="svg3004"
   inkscape:version="0.48.4 r9939"
   sodipodi:docname="logo-horizontal-color-dark.svg">
  <metadata
     id="metadata3044">
    <rdf:RDF>
      <cc:Work
         rdf:about="">
        <dc:format>image/svg+xml</dc:format>
        <dc:type
           rdf:resource="http://purl.org/dc/dcmitype/StillImage" />
        <dc:title></dc:title>
      </cc:Work>
    </rdf:RDF>
  </metadata>
  <defs
     id="defs3042" />
  <sodipodi:namedview
     pagecolor="#ffffff"
     bordercolor="#666666"
     borderopacity="1"
     objecttolerance="10"
     gridtolerance="10"
     guidetolerance="10"
     inkscape:pageopacity="0"
     inkscape:pageshadow="2"
     inkscape:window-width="1366"
     inkscape:window-height="734"
     id="namedview3040"
     showgrid="false"
     inkscape:zoom="0.5"
     inkscape:cx="584.92966"
     inkscape:cy="-80.943368"
     inkscape:window-x="0"
     inkscape:window-y="16"
     inkscape:window-maximized="0"
     inkscape:current-layer="svg3004"
     fit-margin-top="7"
     fit-margin-left="7"
     fit-margin-right="7"
     fit-margin-bottom="7" />
  <g
     id="g4014"
     transform="matrix(1.1915337,0,0,1.1915337,-138.40052,-18.067257)">
    <g
       id="g4019"
       transform="matrix(1.0904165,0,0,1.0904165,-20.263658,3.5320717)">
      <path
         style="fill:#f3cb00;fill-opacity:1;stroke:none"
         d="m 154.49121,61.159294 7.22839,-27.46786 29.20267,27.46786 21.10688,-7.22839 4.04789,-1.73481 18.7938,-18.7938 9.8306,37.29846 -67.9468,8.38493 z"
         id="path3086"
         inkscape:connector-curvature="0" />
      <path
         style="fill:#ffe100;fill-opacity:1;stroke:none"
         d="m 151.30152,110.02316 c 27.77547,-6.24403 58.11661,-8.21195 94.56567,0 15.70795,0 15.21859,-41.442731 20.23027,-62.164096 -42.04699,28.13461 -62.04418,-5.04195 -67.65767,-31.80489 -11.46052,43.96004 -34.90355,52.40052 -67.94681,32.38316 5.20444,20.528609 2.81028,61.922246 20.80854,61.585826 z"
         id="path3084"
         inkscape:connector-curvature="0"
         sodipodi:nodetypes="cccccc" />
    </g>
  </g>
  <path
     transform="translate(-106.45831,-207.03985)"
     style="fill:#d9b600;fill-opacity:1;fill-rule:nonzero;stroke:none"
     inkscape:transform-center-x="-0.0022889366"
     inkscape:transform-center-y="-1.3110481"
     d="m 162.98812,295.38947 -6.54302,6.37101 1.53894,9.00181 -8.0811,-4.25404 -8.08567,4.24533 1.54864,-9.00015 -6.53616,-6.37805 9.0382,-1.30836 4.0461,-8.18718 4.03728,8.19154 z"
     id="path3094" />
  <path
     transform="translate(-2.3374986,-206.49657)"
     style="fill:#d9b600;fill-opacity:1;fill-rule:nonzero;stroke:none"
     inkscape:transform-center-x="-0.0022889366"
     inkscape:transform-center-y="-1.3110481"
     d="m 162.98812,295.38947 -6.54302,6.37101 1.53894,9.00181 -8.0811,-4.25404 -8.08567,4.24533 1.54864,-9.00015 -6.53616,-6.37805 9.0382,-1.30836 4.0461,-8.18718 4.03728,8.19154 z"
     id="path3094-3" />
  <path
     transform="translate(-53.540604,-215.07878)"
     style="fill:#d9b600;fill-opacity:1;fill-rule:nonzero;stroke:none"
     inkscape:transform-center-x="-0.0022889366"
     inkscape:transform-center-y="-1.3110481"
     d="m 162.98812,295.38947 -6.54302,6.37101 1.53894,9.00181 -8.0811,-4.25404 -8.08567,4.24533 1.54864,-9.00015 -6.53616,-6.37805 9.0382,-1.30836 4.0461,-8.18718 4.03728,8.19154 z"
     id="path3094-6" />
  <g
     style="font-size:125.71639251999999942px;font-style:normal;font-variant:normal;font-weight:normal;font-stretch:normal;line-height:125%;letter-spacing:0px;word-spacing:0px;fill:#ffffff;fill-opacity:1;stroke:none;font-family:SquareFont Outline;-inkscape-font-specification:SquareFont Outline"
     id="text3332">
    <path
       d="m 235.32255,27.099577 -20.86892,0 0,88.001473 21.74893,0 c 13.82879,0 20.99464,-7.29156 20.99464,-20.86892 l 0,-7.165834 c 0,-9.303004 -2.89148,-15.840269 -10.30874,-18.731743 l 0,-0.251432 c 6.16009,-2.891475 8.92586,-8.548724 8.92586,-17.600295 l 0,-3.14291 c 0,-13.577357 -6.16012,-20.240339 -20.49177,-20.240339 m -0.88002,48.400811 c 6.28582,0 8.92587,2.514336 8.92587,10.685893 l 0,7.6687 c 0,6.537249 -2.51433,8.674429 -7.16584,8.674429 l -7.92013,0 0,-27.029022 6.1601,0 m 0.50287,-35.829172 c 4.90293,0 7.04012,2.765767 7.04012,9.05158 l 0,4.902939 c 0,7.040111 -3.14292,9.303013 -8.29728,9.303013 l -5.40581,0 0,-23.257532 6.66297,0"
       style="font-family:BEBAS NEUE;-inkscape-font-specification:BEBAS NEUE;fill:#ffffff"
       id="path4202" />
    <path
       d="m 278.22327,47.339916 c 0,-6.285814 2.76576,-8.674431 7.16583,-8.674431 4.40007,0 7.16584,2.388617 7.16584,8.674431 l 0,47.520796 c 0,6.285818 -2.76577,8.674428 -7.16584,8.674428 -4.40007,0 -7.16583,-2.38861 -7.16583,-8.674428 l 0,-47.520796 m -13.8288,46.640781 c 0,14.080223 7.41728,22.126083 20.99463,22.126083 13.57736,0 20.99464,-8.04586 20.99464,-22.126083 l 0,-45.760766 c 0,-14.080222 -7.41728,-22.126086 -20.99464,-22.126086 -13.57735,0 -20.99463,8.045864 -20.99463,22.126086 l 0,45.760766"
       style="font-family:BEBAS NEUE;-inkscape-font-specification:BEBAS NEUE;fill:#ffffff"
       id="path4204" />
    <path
       d="m 328.06785,47.339916 c 0,-6.285814 2.76577,-8.674431 7.16584,-8.674431 4.40007,0 7.16583,2.388617 7.16583,8.674431 l 0,47.520796 c 0,6.285818 -2.76576,8.674428 -7.16583,8.674428 -4.40007,0 -7.16584,-2.38861 -7.16584,-8.674428 l 0,-47.520796 m -13.8288,46.640781 c 0,14.080223 7.41728,22.126083 20.99464,22.126083 13.57736,0 20.99464,-8.04586 20.99464,-22.126083 l 0,-45.760766 c 0,-14.080222 -7.41728,-22.126086 -20.99464,-22.126086 -13.57736,0 -20.99464,8.045864 -20.99464,22.126086 l 0,45.760766"
       style="font-family:BEBAS NEUE;-inkscape-font-specification:BEBAS NEUE;fill:#ffffff"
       id="path4206" />
    <path
       d="m 363.45506,48.219931 c 0,10.057301 3.64579,17.348872 15.21168,27.531889 9.05157,7.920125 11.81734,12.697363 11.81734,19.108892 0,6.285818 -2.76576,8.548718 -7.16583,8.548718 -4.40007,0 -7.16584,-2.2629 -7.16584,-8.548718 l 0,-6.285819 -13.0745,0 0,5.405804 c 0,14.080223 7.04013,22.126083 20.61749,22.126083 13.57735,0 20.61749,-8.04586 20.61749,-22.126083 0,-10.057301 -3.64579,-17.348872 -15.21169,-27.53189 -9.05157,-7.920124 -11.81734,-12.697362 -11.81734,-19.108891 0,-6.285814 2.51433,-8.674431 6.9144,-8.674431 4.40007,0 6.9144,2.388617 6.9144,8.674431 l 0,3.645775 13.07451,0 0,-2.76576 c 0,-14.080222 -6.91442,-22.126086 -20.36606,-22.126086 -13.45164,0 -20.36605,8.045864 -20.36605,22.126086"
       style="font-family:BEBAS NEUE;-inkscape-font-specification:BEBAS NEUE;fill:#ffffff"
       id="path4208" />
    <path
       d="m 408.09026,39.671216 14.45739,0 0,75.429834 13.8288,0 0,-75.429834 14.45739,0 0,-12.571639 -42.74358,0 0,12.571639"
       style="font-family:BEBAS NEUE;-inkscape-font-specification:BEBAS NEUE;fill:#ffffff"
       id="path4210" />
    <path
       d="m 507.7539,115.10105 14.20595,0 -19.23461,-48.777959 19.23461,-39.223514 -13.82881,0 -17.85172,38.092067 -0.25144,0 0,-38.092067 -13.8288,0 0,88.001473 13.8288,0 0,-27.029023 4.27436,-8.045849 13.45166,35.074872"
       style="font-family:BEBAS NEUE;-inkscape-font-specification:BEBAS NEUE;fill:#ffffff"
       id="path4212" />
    <path
       d="m 528.25352,115.10105 13.82881,0 0,-88.001473 -13.82881,0 0,88.001473"
       style="font-family:BEBAS NEUE;-inkscape-font-specification:BEBAS NEUE;fill:#ffffff"
       id="path4214" />
    <path
       d="m 581.61423,115.10105 14.20595,0 0,-88.001473 -12.32021,0 0,52.675168 -0.25143,0 -13.95452,-52.675168 -17.34886,0 0,88.001473 12.44592,0 0,-63.73821 0.25144,0 16.97171,63.73821"
       style="font-family:BEBAS NEUE;-inkscape-font-specification:BEBAS NEUE;fill:#ffffff"
       id="path4216" />
    <path
       d="m 626.58731,78.643298 6.28582,0 0,16.217414 c 0,6.285818 -2.76577,8.548718 -7.16584,8.548718 -4.40007,0 -7.16583,-2.2629 -7.16583,-8.548718 l 0,-47.520796 c 0,-6.285814 2.76576,-8.674431 7.16583,-8.674431 4.40007,0 7.16584,2.388617 7.16584,8.674431 l 0,9.428729 13.0745,0 0,-8.548714 c 0,-14.080222 -7.04013,-22.126086 -20.61749,-22.126086 -13.57736,0 -20.61749,8.045864 -20.61749,22.126086 l 0,45.760766 c 0,14.080223 7.04013,22.126083 20.61749,22.126083 13.57736,0 20.61749,-8.04586 20.61749,-22.126083 l 0,-27.909039 -19.36032,0 0,12.57164"
       style="font-family:BEBAS NEUE;-inkscape-font-specification:BEBAS NEUE;fill:#ffffff"
       id="path4218" />
    <path
       d="m 653.19204,48.219931 c 0,10.057301 3.64579,17.348872 15.21169,27.531889 9.05157,7.920125 11.81734,12.697363 11.81734,19.108892 0,6.285818 -2.76577,8.548718 -7.16584,8.548718 -4.40007,0 -7.16583,-2.2629 -7.16583,-8.548718 l 0,-6.285819 -13.07451,0 0,5.405804 c 0,14.080223 7.04013,22.126083 20.61749,22.126083 13.57736,0 20.61749,-8.04586 20.61749,-22.126083 0,-10.057301 -3.64579,-17.348872 -15.21168,-27.53189 -9.05157,-7.920124 -11.81734,-12.697362 -11.81734,-19.108891 0,-6.285814 2.51433,-8.674431 6.9144,-8.674431 4.40007,0 6.9144,2.388617 6.9144,8.674431 l 0,3.645775 13.0745,0 0,-2.76576 c 0,-14.080222 -6.91441,-22.126086 -20.36605,-22.126086 -13.45164,0 -20.36606,8.045864 -20.36606,22.126086"
       style="font-family:BEBAS NEUE;-inkscape-font-specification:BEBAS NEUE;fill:#ffffff"
       id="path4220" />
  </g>
</svg>
